# AST/ASF file generated using VICON BodyLanguage
# -----------------------------------------------
:version 1.10
:name VICON
:units
  mass 1.0
  length 0.45
  angle deg
:documentation
   .ast/.asf automatically generated from VICON data using
   VICON BodyBuilder and BodyLanguage model FoxedUp or BRILLIANT.MOD
:root
   order TX TY TZ RX RY RZ
   axis XYZ
   position 0 0 0  
   orientation 0 0 0 
:bonedata
  begin
     id 1 
     name lhipjoint
     direction 0.606768 -0.715223 0.346827 
     length 2.41543 
     axis 0 0 0  XYZ
  end
  begin
     id 2 
     name lfemur
     direction 0.34202 -0.939693 0  
     length 7.2778  
     axis 0 0 20  XYZ
    dof rx ry rz
    limits (-160.0 20.0)
           (-70.0 70.0)
           (-60.0 70.0)
  end
  begin
     id 3 
     name ltibia
     direction 0.34202 -0.939693 0   
     length 7.61811   
     axis 0 0 20   XYZ
    dof rx
    limits (-10.0 170.0)
  end
  begin
     id 4 
     name lfoot
     direction 0.0823924 -0.226371 0.97055   
     length 2.33618   
     axis -90 7.62852e-016 20   XYZ
    dof rx rz
    limits (-45.0 90.0)
           (-70.0 20.0)
  end
  begin
     id 5 
     name ltoes
     direction 1.53554e-011 -4.21934e-011 1   
     length 1.17015   
     axis -90 7.62852e-016 20   XYZ
    dof rx
    limits (-90.0 20.0)
  end
  begin
     id 6 
     name rhipjoint
     direction -0.6077 -0.714582 0.346516   
     length 2.4176  
     axis 0 0 0  XYZ 
  end
  begin
     id 7 
     name rfemur
     direction -0.34202 -0.939693 0   
     length 7.28127   
     axis 0 0 -20   XYZ
    dof rx ry rz
    limits (-160.0 20.0)
           (-70.0 70.0)
           (-70.0 60.0)
  end
  begin
     id 8 
     name rtibia
     direction -0.34202 -0.939693 0   
     length 7.77648   
     axis 0 0 -20   XYZ
    dof rx
    limits (-10.0 170.0)
 end
 begin
     id 9 
     name rfoot
     direction -0.0809463 -0.222398 0.97159   
     length 2.37533  
     axis -90 -7.62852e-016 -20   XYZ
    dof rx rz
    limits (-45.0 90.0)
           (-20.0 70.0)
  end
  begin
     id 10 
     name rtoes
     direction -1.53568e-011 -4.21714e-011 1   
     length 1.18972   
     axis -90 -7.62852e-016 -20   XYZ
    dof rx
    limits (-90.0 20.0)
  end
  begin
     id 11 
     name lowerback
     direction 0.010968 0.991932 -0.126297   
     length 2.21698   
     axis 0 0 0   XYZ
    dof rx ry rz
    limits (-20.0 45.0)
           (-30.0 30.0)
           (-30.0 30.0)
  end
  begin
     id 12 
     name upperback
     direction 0.0167007 0.997503 -0.0686276   
     length 2.22371   
     axis 0 0 0   XYZ
    dof rx ry rz
    limits (-20.0 45.0)
           (-30.0 30.0)
           (-30.0 30.0)
  end
  begin
     id 13 
     name thorax
     direction 0.0111721 0.999885 -0.0102878   
     length 2.25242   
     axis 0 0 0   XYZ
    dof rx ry rz
    limits (-20.0 45.0)
           (-30.0 30.0)
           (-30.0 30.0)
  end
  begin
     id 14 
     name lowerneck
     direction -0.0120265 0.990428 0.137508   
     length 1.57674   
     axis 0 0 0   XYZ
    dof rx ry rz
    limits (-20.0 45.0)
           (-30.0 30.0)
           (-30.0 30.0)
  end
  begin
     id 15 
     name upperneck
     direction 0.0175669 0.998907 0.0433089   
     length 1.5618   
     axis 0 0 0   XYZ
    dof rx ry rz
    limits (-20.0 45.0)
           (-30.0 30.0)
           (-30.0 30.0)
  end
  begin
     id 16
     name head
     direction 0.00754609 0.99997 0.00185367  
     length 1.60579  
     axis 0 0 0   XYZ
    dof rx ry rz
    limits (-20.0 45.0)
           (-30.0 30.0)
           (-30.0 30.0)
  end
  begin
     id 17 
     name lclavicle
     direction 0.885866 0.429166 -0.176231  
     length 3.44967  
     axis 0 0 0   XYZ
    dof ry rz
    limits (-20.0 10.0)
           (0.0 20.0)
  end
  begin
     id 18 
     name lhumerus
     direction 1 -4.48973e-011 -1.90255e-027   
     length 5.20607   
     axis 180 -30 -90   XYZ
    dof rx ry rz
    limits (-60.0 90.0)
           (-90.0 90.0)
           (-90.0 90.0)
  end
  begin
     id 19
     name lradius
     direction 1 -4.48956e-011 9.87925e-027   
     length 3.39961   
     axis 180 -30 -90   XYZ
    dof rx
    limits (-10.0 170.0)
  end
  begin
     id 20
     name lwrist
     direction 1 -4.48985e-011 1.73247e-026   
     length 1.6998   
     axis -9.60847e-015 90 90   XYZ
    dof ry
    limits (-180.0 0.0)
 end
  begin
     id 21 
     name lhand
     direction 1 -4.48798e-011 3.46119e-026   
     length 0.519693   
     axis -2.21073e-014 90 90   XYZ
    dof rx rz
    limits (-90.0 90.0)
           (-45.0 45.0)
  end
  begin
     id 22 
     name lfingers
     direction 1 -4.48938e-011 6.92797e-026   
     length 0.41899   
     axis -4.42155e-014 90 90   XYZ
    dof rx
    limits (0.0 90.0)
  end
  begin
     id 23
     name lthumb
     direction 0.707107 -6.34952e-011 0.707107   
     length 0.601588   
     axis -90 45 6.0103e-014   XYZ
    dof rx rz
    limits (-45.0 45.0)
           (-45.0 45.0)
  end
  begin
     id 24 
     name rclavicle
     direction -0.866736 0.456792 -0.200276   
     length 3.45032  
     axis 0 0 0   XYZ 
    dof ry rz
    limits (-10.0 20.0)
           (-20.0 0.0)
  end
  begin
     id 25 
     name rhumerus
     direction -1 -4.4897e-011 8.65094e-028  
     length 5.32214   
     axis 180 30 90   XYZ
    dof rx ry rz
    limits (-90.0 60.0)
           (-90.0 90.0)
           (-90.0 90.0)
  end
  begin
     id 26 
     name rradius
     direction -1 -4.48987e-011 1.08427e-026   
     length 3.51208   
     axis 180 30 90   XYZ
    dof rx
    limits (-10.0 170.0)
  end
  begin
     id 27 
     name rwrist
     direction -1 -4.48961e-011 1.73222e-026   
     length 1.75604   
     axis -9.60847e-015 -90 -90   XYZ
    dof ry
    limits (-180.0 0.0)
  end
  begin
     id 28
     name rhand
     direction -1 -4.48895e-011 3.46314e-026   
     length 0.586681   
     axis -2.21073e-014 -90 -90   XYZ
    dof rx rz
    limits (-90.0 90.0)
           (-45.0 45.0)
  end
  begin
     id 29
     name rfingers
     direction -1 -4.48968e-011 6.92916e-026   
     length 0.472997   
     axis -4.42155e-014 -90 -90   XYZ
    dof rx
    limits (0.0 90.0)
  end
  begin
     id 30
     name rthumb
     direction -0.707107 -6.34848e-011 0.707107   
     length 0.679133   
     axis -90 -45 -6.0103e-014   XYZ
    dof rx rz
    limits (-45.0 45.0)
           (-45.0 45.0)
  end
:hierarchy
  begin
    root lhipjoint rhipjoint lowerback
    lhipjoint lfemur
    lfemur ltibia
    ltibia lfoot
    lfoot ltoes
    rhipjoint rfemur
    rfemur rtibia
    rtibia rfoot
    rfoot rtoes
    lowerback upperback
    upperback thorax
    thorax lowerneck lclavicle rclavicle
    lowerneck upperneck
    upperneck head
    lclavicle lhumerus
    lhumerus lradius
    lradius lwrist
    lwrist lhand lthumb
    lhand lfingers
    rclavicle rhumerus
    rhumerus rradius
    rradius rwrist
    rwrist rhand rthumb
    rhand rfingers
  end

#!OML:ASF H:\Dans Jumps\Project 1\Capture day 1\Session 1\subject.ASF
:FULLY-SPECIFIED
:DEGREES
37
root 0.575812 17.5517 -13.8961 7.38897 -0.296573 -1.42825
lowerback -2.18751 -0.577245 0.00713049
upperback 3.05488 -0.845306 1.86963
thorax 4.40508 -0.454091 1.87586
lowerneck -14.4123 0.377056 -2.12518
upperneck 29.4273 0.945582 0.58386
head 12.042 0.25737 0.721813
rclavicle -6.16232e-015 1.23246e-014
rhumerus -24.4301 -16.9418 -77.7541
rradius 24.6707
rwrist 32.5245
rhand -18.3002 -26.1622
rfingers 7.12502
rthumb 7.98062 -55.9916
lclavicle -6.16232e-015 1.23246e-014
lhumerus -22.4107 1.93208 85.1752
lradius 19.4703
lwrist 3.76971
lhand -23.8506 -3.51733
lfingers 7.12502
lthumb 2.6216 26.4463
rfemur -14.4918 -3.0334 20.7649
rtibia 21.826
rfoot -14.0923 -2.53642
rtoes 9.80945
lfemur -14.1597 8.91583 -19.6426
ltibia 19.5351
lfoot -11.4482 3.58233
ltoes -1.69303
38
root 0.576586 17.5517 -13.8959 7.39149 -0.309855 -1.42491
lowerback -2.19221 -0.576093 0.000873495
upperback 3.05437 -0.843546 1.86964
thorax 4.40726 -0.45343 1.87945
lowerneck -14.4007 0.384428 -2.09374
upperneck 29.4141 0.956112 0.554238
head 12.0346 0.261885 0.706615
rclavicle -6.16232e-015 2.78299e-014
rhumerus -24.431 -16.9432 -77.7624
rradius 24.6744
rwrist 32.5196
rhand -18.2993 -26.1532
rfingers 7.12502
rthumb 7.98146 -55.9825
lclavicle -6.16232e-015 2.78299e-014
lhumerus -22.4151 1.94659 85.1737
lradius 19.4635
lwrist 3.76063
lhand -23.8476 -3.49976
lfingers 7.12502
lthumb 2.62453 26.4638
rfemur -14.4981 -3.02621 20.7578
rtibia 21.8298
rfoot -14.0914 -2.53304
rtoes 9.78525
lfemur -14.1603 8.92431 -19.6505
ltibia 19.5333
lfoot -11.4471 3.58623
ltoes -1.69538
39
root 0.577275 17.5516 -13.8958 7.39298 -0.321912 -1.42075
lowerback -2.19441 -0.575827 -0.006753
upperback 3.05344 -0.842884 1.86986
thorax 4.40764 -0.453355 1.88399
lowerneck -14.4007 0.387621 -2.0846
upperneck 29.4137 0.96149 0.543258
head 12.0345 0.263872 0.701682
rclavicle -8.94531e-016 1.43125e-014
rhumerus -24.4344 -16.9425 -77.7711
rradius 24.6793
rwrist 32.5123
rhand -18.3006 -26.1431
rfingers 7.12502
rthumb 7.98025 -55.9725
lclavicle -8.94531e-016 1.43125e-014
lhumerus -22.422 1.96423 85.172
lradius 19.4637
lwrist 3.75573
lhand -23.8361 -3.46059
lfingers 7.12502
lthumb 2.63562 26.5029
rfemur -14.5028 -3.01755 20.7499
rtibia 21.8337
rfoot -14.0913 -2.53082
rtoes 9.77221
lfemur -14.159 8.93284 -19.6587
ltibia 19.5297
lfoot -11.4463 3.588
ltoes -1.69081
40
root 0.577919 17.5516 -13.8957 7.39314 -0.33381 -1.41521
lowerback -2.19408 -0.57591 -0.0157999
upperback 3.05276 -0.842589 1.86973
thorax 4.40687 -0.453502 1.88896
lowerneck -14.3993 0.390661 -2.07599
upperneck 29.4122 0.966517 0.533009
head 12.0336 0.265748 0.697048
rclavicle 1.39149e-015 -9.54166e-015
rhumerus -24.4384 -16.9413 -77.7803
rradius 24.6858
rwrist 32.5019
rhand -18.2948 -26.1375
rfingers 7.12502
rthumb 7.98579 -55.9666
lclavicle 1.39149e-015 -9.54166e-015
lhumerus -22.4307 1.98092 85.1702
lradius 19.4653
lwrist 3.75133
lhand -23.8262 -3.43309
lfingers 7.12502
lthumb 2.64517 26.5303
rfemur -14.5053 -3.00526 20.74
rtibia 21.8367
rfoot -14.0919 -2.52914
rtoes 9.77995
lfemur -14.1558 8.93897 -19.6677
ltibia 19.5253
lfoot -11.4452 3.59143
ltoes -1.68467
41
root 0.578473 17.5516 -13.8956 7.39236 -0.3443 -1.4098
lowerback -2.19211 -0.576009 -0.0248263
upperback 3.05216 -0.842299 1.86958
thorax 4.40526 -0.453647 1.8939
lowerneck -14.3967 0.393358 -2.06602
upperneck 29.4099 0.970659 0.522679
head 12.0322 0.267381 0.69201
rclavicle -1.98785e-015 -9.14409e-015
rhumerus -24.4423 -16.9429 -77.7892
rradius 24.6913
rwrist 32.4914
rhand -18.283 -26.138
rfingers 7.12502
rthumb 7.99722 -55.9667
lclavicle -1.98785e-015 -9.14409e-015
lhumerus -22.4398 1.99344 85.1689
lradius 19.4687
lwrist 3.74966
lhand -23.8213 -3.42117
lfingers 7.12502
lthumb 2.64989 26.5421
rfemur -14.5056 -2.99174 20.7306
rtibia 21.8378
rfoot -14.0913 -2.52894
rtoes 9.79829
lfemur -14.1521 8.94397 -19.6759
ltibia 19.5217
lfoot -11.445 3.59396
ltoes -1.67178
42
root 0.57898 17.5515 -13.8956 7.39086 -0.354566 -1.40805
lowerback -2.18856 -0.575477 -0.0291026
upperback 3.05202 -0.841385 1.87004
thorax 4.40313 -0.453336 1.89686
lowerneck -14.3962 0.394895 -2.06141
upperneck 29.4092 0.97288 0.518242
head 12.0319 0.268304 0.689856
rclavicle 1.49089e-015 1.19271e-015
rhumerus -24.4452 -16.9427 -77.7988
rradius 24.6951
rwrist 32.478
rhand -18.2724 -26.1383
rfingers 7.12502
rthumb 8.00748 -55.9666
lclavicle 1.49089e-015 1.19271e-015
lhumerus -22.4476 2.00182 85.168
lradius 19.469
lwrist 3.74772
lhand -23.8187 -3.42662
lfingers 7.12502
lthumb 2.65244 26.5366
rfemur -14.5039 -2.97637 20.7254
rtibia 21.8363
rfoot -14.0911 -2.53156
rtoes 9.81484
lfemur -14.1483 8.94736 -19.6793
ltibia 19.5197
lfoot -11.4444 3.59759
ltoes -1.65245
43
root 0.579457 17.5515 -13.8956 7.3898 -0.363795 -1.40937
lowerback -2.18594 -0.574977 -0.0289177
upperback 3.05212 -0.840738 1.87091
thorax 4.40174 -0.453021 1.89773
lowerneck -14.3944 0.397046 -2.05474
upperneck 29.4068 0.975637 0.512922
head 12.0306 0.269599 0.687074
rclavicle 7.7526e-015 -5.56597e-015
rhumerus -24.4488 -16.9367 -77.8105
rradius 24.7017
rwrist 32.4565
rhand -18.2549 -26.1531
rfingers 7.12502
rthumb 8.02431 -55.9807
lclavicle 7.7526e-015 -5.56597e-015
lhumerus -22.4538 2.01034 85.1663
lradius 19.4665
lwrist 3.74218
lhand -23.8194 -3.45055
lfingers 7.12502
lthumb 2.65181 26.5127
rfemur -14.5011 -2.96393 20.7241
rtibia 21.832
rfoot -14.0895 -2.53347
rtoes 9.82397
lfemur -14.1461 8.94849 -19.6791
ltibia 19.5203
lfoot -11.4444 3.60215
ltoes -1.62522
44
root 0.579923 17.5515 -13.8955 7.38865 -0.373155 -1.41293
lowerback -2.18523 -0.5741 -0.024784
upperback 3.05294 -0.83979 1.87186
thorax 4.40211 -0.452437 1.89644
lowerneck -14.3915 0.399231 -2.04886
upperneck 29.4032 0.978043 0.509496
head 12.0285 0.270909 0.685073
rclavicle -1.93815e-014 4.05521e-014
rhumerus -24.4513 -16.9319 -77.8221
rradius 24.706
rwrist 32.4365
rhand -18.24 -26.1696
rfingers 7.12502
rthumb 8.03868 -55.9967
lclavicle -1.93815e-014 4.05521e-014
lhumerus -22.46 2.01411 85.1657
lradius 19.4686
lwrist 3.74162
lhand -23.8156 -3.4467
lfingers 7.12502
lthumb 2.65548 26.5165
rfemur -14.4967 -2.95629 20.7255
rtibia 21.8252
rfoot -14.0876 -2.53206
rtoes 9.81761
lfemur -14.144 8.94894 -19.6762
ltibia 19.5229
lfoot -11.4451 3.60879
ltoes -1.60397
45
root 0.580333 17.5515 -13.8955 7.38898 -0.381611 -1.41823
lowerback -2.18714 -0.573043 -0.0183286
upperback 3.05418 -0.838762 1.87338
thorax 4.40438 -0.451756 1.89444
lowerneck -14.3864 0.400459 -2.04416
upperneck 29.3971 0.979306 0.506143
head 12.0251 0.271616 0.68311
rclavicle -3.27995e-015 -8.74653e-015
rhumerus -24.4537 -16.9317 -77.8315
rradius 24.7088
rwrist 32.424
rhand -18.2239 -26.1809
rfingers 7.12502
rthumb 8.05422 -56.0075
lclavicle -3.27995e-015 -8.74653e-015
lhumerus -22.4647 2.01913 85.1656
lradius 19.4708
lwrist 3.73933
lhand -23.813 -3.45168
lfingers 7.12502
lthumb 2.65797 26.5115
rfemur -14.4932 -2.95142 20.7292
rtibia 21.8168
rfoot -14.0862 -2.52868
rtoes 9.8148
lfemur -14.1439 8.94866 -19.6716
ltibia 19.526
lfoot -11.447 3.61558
ltoes -1.58775
46
root 0.58076 17.5516 -13.8953 7.38933 -0.390236 -1.42308
lowerback -2.19179 -0.571963 -0.0113057
upperback 3.05698 -0.837778 1.8748
thorax 4.40982 -0.451096 1.89198
lowerneck -14.3819 0.400916 -2.04158
upperneck 29.3895 0.979761 0.503761
head 12.0212 0.271866 0.681756
rclavicle 1.19271e-015 -2.38542e-015
rhumerus -24.4545 -16.9333 -77.8401
rradius 24.711
rwrist 32.418
rhand -18.2085 -26.1903
rfingers 7.12502
rthumb 8.06908 -56.0162
lclavicle 1.19271e-015 -2.38542e-015
lhumerus -22.468 2.02077 85.1673
lradius 19.476
lwrist 3.7417
lhand -23.8117 -3.43614
lfingers 7.12502
lthumb 2.65923 26.527
rfemur -14.4894 -2.95067 20.7321
rtibia 21.8084
rfoot -14.0859 -2.51886
rtoes 9.8258
lfemur -14.1429 8.94876 -19.6677
ltibia 19.528
lfoot -11.4484 3.62387
ltoes -1.58194
47
root 0.581157 17.5516 -13.8951 7.39001 -0.397975 -1.42681
lowerback -2.19694 -0.570889 -0.00522677
upperback 3.0603 -0.836776 1.87615
thorax 4.4161 -0.450462 1.88999
lowerneck -14.3787 0.400151 -2.04216
upperneck 29.3819 0.978856 0.503064
head 12.0175 0.271375 0.681391
rclavicle -4.37326e-015 7.55382e-015
rhumerus -24.4558 -16.9393 -77.8469
rradius 24.7131
rwrist 32.4181
rhand -18.2004 -26.1915
rfingers 7.12502
rthumb 8.07689 -56.0171
lclavicle -4.37326e-015 7.55382e-015
lhumerus -22.4695 2.02346 85.1694
lradius 19.48
lwrist 3.74103
lhand -23.8177 -3.43817
lfingers 7.12502
lthumb 2.65346 26.5251
rfemur -14.486 -2.95176 20.734
rtibia 21.801
rfoot -14.0873 -2.50669
rtoes 9.84626
lfemur -14.1412 8.94914 -19.6652
ltibia 19.5278
lfoot -11.4502 3.6316
ltoes -1.58143
48
root 0.581531 17.5517 -13.895 7.39072 -0.406866 -1.42814
lowerback -2.20255 -0.569644 -0.00134219
upperback 3.06456 -0.835451 1.8769
thorax 4.42364 -0.449737 1.88862
lowerneck -14.3748 0.398624 -2.04685
upperneck 29.3725 0.977058 0.505303
head 12.0129 0.270427 0.68269
rclavicle -3.97569e-015 3.57812e-015
rhumerus -24.456 -16.9455 -77.8534
rradius 24.7153
rwrist 32.4223
rhand -18.1997 -26.1847
rfingers 7.12502
rthumb 8.07765 -56.0104
lclavicle -3.97569e-015 3.57812e-015
lhumerus -22.47 2.02599 85.1722
lradius 19.4844
lwrist 3.73956
lhand -23.8268 -3.43784
lfingers 7.12502
lthumb 2.64462 26.5255
rfemur -14.4835 -2.95134 20.733
rtibia 21.7948
rfoot -14.0894 -2.49377
rtoes 9.87997
lfemur -14.1382 8.94994 -19.6655
ltibia 19.5255
lfoot -11.4513 3.64026
ltoes -1.58457
